<svg xmlns="http://www.w3.org/2000/svg" height="1em" width="1.267578125em" viewBox="0 0 649 512" class="pla-svg-icon plo-header__nav-icon">
<path d="M437.94,471.6a39.9,39.9,0,1,1,39.9,39.9,39.9,39.9,0,0,1-39.9-39.9Zm-228.15,0a39.9,39.9,0,1,1,39.9,39.9A39.9,39.9,0,0,1,209.79,471.6Zm-5.89-77.42a25.34,25.34,0,0,1-23.77-16.81c-3-8.3-114.74-327.69-114.74-327.69H25A25.09,25.09,0,0,1,25-.5H81a29.5,29.5,0,0,1,19.48,7.31A38.6,38.6,0,0,1,108,19.61l9.25,26.45H623a25,25,0,0,1,23.94,32.6c-2.58,9-45.9,156.07-47.29,160.91a25,25,0,0,1-24.16,18H191.32l30.28,86.51h300a25.09,25.09,0,0,1,0,50.18H203.9ZM173.75,207.32h383L589.46,96.23H134.85Z"></path></svg>